<mxfile host="app.diagrams.net" modified="2023-07-28T17:23:09.905Z" agent="Mozilla/5.0 (Windows NT 10.0; Win64; x64) AppleWebKit/537.36 (KHTML, like Gecko) Chrome/115.0.0.0 Safari/537.36 Edg/115.0.1901.183" etag="pBFxpm4mg1tn2YsFNo24" version="21.6.5" type="device">
  <diagram name="Page-1" id="3E9jydcgpKtOAy_IIU7b">
    <mxGraphModel dx="1235" dy="684" grid="1" gridSize="10" guides="1" tooltips="1" connect="1" arrows="1" fold="1" page="1" pageScale="1" pageWidth="850" pageHeight="1100" math="0" shadow="0">
      <root>
        <mxCell id="0" />
        <mxCell id="1" parent="0" />
        <mxCell id="K5UuwSXsBrcgBbs2XnQ3-2" value="" style="endArrow=classic;html=1;rounded=0;fillColor=#fa6800;strokeColor=#C73500;" edge="1" parent="1">
          <mxGeometry width="50" height="50" relative="1" as="geometry">
            <mxPoint x="80" y="34.95" as="sourcePoint" />
            <mxPoint x="1360" y="35" as="targetPoint" />
          </mxGeometry>
        </mxCell>
        <mxCell id="K5UuwSXsBrcgBbs2XnQ3-3" value="" style="endArrow=classic;html=1;rounded=0;fillColor=#fa6800;strokeColor=#C73500;" edge="1" parent="1" source="K5UuwSXsBrcgBbs2XnQ3-56">
          <mxGeometry width="50" height="50" relative="1" as="geometry">
            <mxPoint x="120" y="74.83" as="sourcePoint" />
            <mxPoint x="1360" y="75" as="targetPoint" />
          </mxGeometry>
        </mxCell>
        <mxCell id="K5UuwSXsBrcgBbs2XnQ3-4" value="" style="endArrow=classic;html=1;rounded=0;fillColor=#fa6800;strokeColor=#C73500;" edge="1" parent="1">
          <mxGeometry width="50" height="50" relative="1" as="geometry">
            <mxPoint x="120" y="114.83" as="sourcePoint" />
            <mxPoint x="1360" y="115" as="targetPoint" />
          </mxGeometry>
        </mxCell>
        <mxCell id="K5UuwSXsBrcgBbs2XnQ3-5" value="" style="endArrow=classic;html=1;rounded=0;fillColor=#fa6800;strokeColor=#C73500;" edge="1" parent="1" source="K5UuwSXsBrcgBbs2XnQ3-46">
          <mxGeometry width="50" height="50" relative="1" as="geometry">
            <mxPoint x="160" y="154.83" as="sourcePoint" />
            <mxPoint x="917" y="155" as="targetPoint" />
          </mxGeometry>
        </mxCell>
        <mxCell id="K5UuwSXsBrcgBbs2XnQ3-6" value="" style="endArrow=classic;html=1;rounded=0;fillColor=#fa6800;strokeColor=#C73500;" edge="1" parent="1" source="K5UuwSXsBrcgBbs2XnQ3-22">
          <mxGeometry width="50" height="50" relative="1" as="geometry">
            <mxPoint x="160" y="194.83" as="sourcePoint" />
            <mxPoint x="456" y="195" as="targetPoint" />
          </mxGeometry>
        </mxCell>
        <mxCell id="K5UuwSXsBrcgBbs2XnQ3-9" value="" style="ellipse;whiteSpace=wrap;html=1;aspect=fixed;fillColor=#6d8764;fontColor=#ffffff;strokeColor=#3A5431;" vertex="1" parent="1">
          <mxGeometry x="70" y="30" width="10" height="10" as="geometry" />
        </mxCell>
        <mxCell id="K5UuwSXsBrcgBbs2XnQ3-11" value="" style="ellipse;whiteSpace=wrap;html=1;aspect=fixed;fillColor=#6d8764;fontColor=#ffffff;strokeColor=#3A5431;" vertex="1" parent="1">
          <mxGeometry x="110" y="70" width="10" height="10" as="geometry" />
        </mxCell>
        <mxCell id="K5UuwSXsBrcgBbs2XnQ3-15" value="" style="ellipse;whiteSpace=wrap;html=1;aspect=fixed;fillColor=#6d8764;fontColor=#ffffff;strokeColor=#3A5431;" vertex="1" parent="1">
          <mxGeometry x="110" y="110" width="10" height="10" as="geometry" />
        </mxCell>
        <mxCell id="K5UuwSXsBrcgBbs2XnQ3-16" value="" style="ellipse;whiteSpace=wrap;html=1;aspect=fixed;fillColor=#6d8764;fontColor=#ffffff;strokeColor=#3A5431;" vertex="1" parent="1">
          <mxGeometry x="150" y="150" width="10" height="10" as="geometry" />
        </mxCell>
        <mxCell id="K5UuwSXsBrcgBbs2XnQ3-17" value="" style="ellipse;whiteSpace=wrap;html=1;aspect=fixed;fillColor=#6d8764;fontColor=#ffffff;strokeColor=#3A5431;" vertex="1" parent="1">
          <mxGeometry x="150" y="190" width="10" height="10" as="geometry" />
        </mxCell>
        <mxCell id="K5UuwSXsBrcgBbs2XnQ3-18" value="" style="endArrow=classic;html=1;rounded=0;entryX=0.5;entryY=0;entryDx=0;entryDy=0;targetPerimeterSpacing=0;fillColor=#fa6800;strokeColor=#C73500;" edge="1" parent="1" target="K5UuwSXsBrcgBbs2XnQ3-11">
          <mxGeometry width="50" height="50" relative="1" as="geometry">
            <mxPoint x="115" y="35" as="sourcePoint" />
            <mxPoint x="110" y="60" as="targetPoint" />
          </mxGeometry>
        </mxCell>
        <mxCell id="K5UuwSXsBrcgBbs2XnQ3-19" value="" style="endArrow=classic;html=1;rounded=0;entryX=0.5;entryY=0;entryDx=0;entryDy=0;targetPerimeterSpacing=0;fillColor=#fa6800;strokeColor=#C73500;" edge="1" parent="1">
          <mxGeometry width="50" height="50" relative="1" as="geometry">
            <mxPoint x="114.83" y="80" as="sourcePoint" />
            <mxPoint x="115" y="110" as="targetPoint" />
          </mxGeometry>
        </mxCell>
        <mxCell id="K5UuwSXsBrcgBbs2XnQ3-20" value="" style="endArrow=classic;html=1;rounded=0;entryX=0.5;entryY=0;entryDx=0;entryDy=0;targetPerimeterSpacing=0;fillColor=#fa6800;strokeColor=#C73500;" edge="1" parent="1">
          <mxGeometry width="50" height="50" relative="1" as="geometry">
            <mxPoint x="154.82999999999998" y="115" as="sourcePoint" />
            <mxPoint x="155" y="150" as="targetPoint" />
          </mxGeometry>
        </mxCell>
        <mxCell id="K5UuwSXsBrcgBbs2XnQ3-21" value="" style="endArrow=classic;html=1;rounded=0;entryX=0.5;entryY=0;entryDx=0;entryDy=0;targetPerimeterSpacing=0;fillColor=#fa6800;strokeColor=#C73500;" edge="1" parent="1">
          <mxGeometry width="50" height="50" relative="1" as="geometry">
            <mxPoint x="154.82999999999998" y="160" as="sourcePoint" />
            <mxPoint x="155" y="190" as="targetPoint" />
          </mxGeometry>
        </mxCell>
        <mxCell id="K5UuwSXsBrcgBbs2XnQ3-23" value="" style="endArrow=none;html=1;rounded=0;fillColor=#fa6800;strokeColor=#C73500;endFill=0;" edge="1" parent="1" target="K5UuwSXsBrcgBbs2XnQ3-22">
          <mxGeometry width="50" height="50" relative="1" as="geometry">
            <mxPoint x="160" y="194.83" as="sourcePoint" />
            <mxPoint x="1000" y="194.83" as="targetPoint" />
          </mxGeometry>
        </mxCell>
        <mxCell id="K5UuwSXsBrcgBbs2XnQ3-22" value="" style="ellipse;whiteSpace=wrap;html=1;aspect=fixed;fillColor=#6d8764;fontColor=#ffffff;strokeColor=#3A5431;" vertex="1" parent="1">
          <mxGeometry x="350" y="190" width="10" height="10" as="geometry" />
        </mxCell>
        <mxCell id="K5UuwSXsBrcgBbs2XnQ3-25" value="" style="endArrow=classic;startArrow=oval;html=1;rounded=0;sourcePerimeterSpacing=1;endFill=1;startFill=1;fillColor=#dae8fc;strokeColor=#6c8ebf;gradientColor=#7ea6e0;" edge="1" parent="1">
          <mxGeometry width="50" height="50" relative="1" as="geometry">
            <mxPoint x="460" y="195" as="sourcePoint" />
            <mxPoint x="460" y="115" as="targetPoint" />
          </mxGeometry>
        </mxCell>
        <mxCell id="K5UuwSXsBrcgBbs2XnQ3-27" value="Merge into Integration &amp;amp; Delete" style="text;html=1;strokeColor=none;fillColor=none;align=center;verticalAlign=middle;whiteSpace=wrap;rounded=0;" vertex="1" parent="1">
          <mxGeometry x="860" y="160" width="110" height="30" as="geometry" />
        </mxCell>
        <mxCell id="K5UuwSXsBrcgBbs2XnQ3-28" value="F2 Commit 1" style="text;html=1;strokeColor=none;fillColor=none;align=center;verticalAlign=middle;whiteSpace=wrap;rounded=0;" vertex="1" parent="1">
          <mxGeometry x="325" y="200" width="60" height="30" as="geometry" />
        </mxCell>
        <mxCell id="K5UuwSXsBrcgBbs2XnQ3-33" style="edgeStyle=orthogonalEdgeStyle;rounded=0;orthogonalLoop=1;jettySize=auto;html=1;entryX=0;entryY=0.5;entryDx=0;entryDy=0;curved=1;" edge="1" parent="1" source="K5UuwSXsBrcgBbs2XnQ3-30" target="K5UuwSXsBrcgBbs2XnQ3-11">
          <mxGeometry relative="1" as="geometry" />
        </mxCell>
        <mxCell id="K5UuwSXsBrcgBbs2XnQ3-34" style="edgeStyle=orthogonalEdgeStyle;rounded=0;orthogonalLoop=1;jettySize=auto;html=1;entryX=1;entryY=1;entryDx=0;entryDy=0;curved=1;" edge="1" parent="1" source="K5UuwSXsBrcgBbs2XnQ3-30" target="K5UuwSXsBrcgBbs2XnQ3-15">
          <mxGeometry relative="1" as="geometry" />
        </mxCell>
        <mxCell id="K5UuwSXsBrcgBbs2XnQ3-35" style="edgeStyle=orthogonalEdgeStyle;rounded=0;orthogonalLoop=1;jettySize=auto;html=1;entryX=0;entryY=1;entryDx=0;entryDy=0;curved=1;" edge="1" parent="1" source="K5UuwSXsBrcgBbs2XnQ3-30" target="K5UuwSXsBrcgBbs2XnQ3-16">
          <mxGeometry relative="1" as="geometry" />
        </mxCell>
        <mxCell id="K5UuwSXsBrcgBbs2XnQ3-36" style="edgeStyle=orthogonalEdgeStyle;rounded=0;orthogonalLoop=1;jettySize=auto;html=1;entryX=0;entryY=0.5;entryDx=0;entryDy=0;curved=1;" edge="1" parent="1" source="K5UuwSXsBrcgBbs2XnQ3-30" target="K5UuwSXsBrcgBbs2XnQ3-17">
          <mxGeometry relative="1" as="geometry" />
        </mxCell>
        <mxCell id="K5UuwSXsBrcgBbs2XnQ3-37" style="edgeStyle=orthogonalEdgeStyle;rounded=0;orthogonalLoop=1;jettySize=auto;html=1;entryX=0.5;entryY=1;entryDx=0;entryDy=0;curved=1;" edge="1" parent="1" source="K5UuwSXsBrcgBbs2XnQ3-30" target="K5UuwSXsBrcgBbs2XnQ3-9">
          <mxGeometry relative="1" as="geometry" />
        </mxCell>
        <mxCell id="K5UuwSXsBrcgBbs2XnQ3-30" value="Initial Commits&lt;br&gt;READMEs" style="text;html=1;strokeColor=none;fillColor=none;align=center;verticalAlign=middle;whiteSpace=wrap;rounded=0;" vertex="1" parent="1">
          <mxGeometry x="10" y="120" width="60" height="30" as="geometry" />
        </mxCell>
        <mxCell id="K5UuwSXsBrcgBbs2XnQ3-39" value="" style="endArrow=none;html=1;rounded=0;fillColor=#fa6800;strokeColor=#C73500;endFill=0;" edge="1" parent="1" target="K5UuwSXsBrcgBbs2XnQ3-38">
          <mxGeometry width="50" height="50" relative="1" as="geometry">
            <mxPoint x="160" y="154.83" as="sourcePoint" />
            <mxPoint x="1000" y="154.83" as="targetPoint" />
          </mxGeometry>
        </mxCell>
        <mxCell id="K5UuwSXsBrcgBbs2XnQ3-38" value="" style="ellipse;whiteSpace=wrap;html=1;aspect=fixed;fillColor=#6d8764;fontColor=#ffffff;strokeColor=#3A5431;" vertex="1" parent="1">
          <mxGeometry x="530" y="150" width="10" height="10" as="geometry" />
        </mxCell>
        <mxCell id="K5UuwSXsBrcgBbs2XnQ3-40" value="" style="endArrow=oval;startArrow=oval;html=1;rounded=0;sourcePerimeterSpacing=1;endFill=1;startFill=1;fillColor=#dae8fc;strokeColor=#6c8ebf;gradientColor=#7ea6e0;" edge="1" parent="1">
          <mxGeometry width="50" height="50" relative="1" as="geometry">
            <mxPoint x="649.66" y="155" as="sourcePoint" />
            <mxPoint x="649.66" y="115" as="targetPoint" />
          </mxGeometry>
        </mxCell>
        <mxCell id="K5UuwSXsBrcgBbs2XnQ3-41" value="Rebase into Integration" style="text;html=1;strokeColor=none;fillColor=none;align=center;verticalAlign=middle;whiteSpace=wrap;rounded=0;" vertex="1" parent="1">
          <mxGeometry x="610" y="155" width="80" height="40" as="geometry" />
        </mxCell>
        <mxCell id="K5UuwSXsBrcgBbs2XnQ3-42" value="F1 Commit 1" style="text;html=1;strokeColor=none;fillColor=none;align=center;verticalAlign=middle;whiteSpace=wrap;rounded=0;" vertex="1" parent="1">
          <mxGeometry x="505" y="160" width="60" height="30" as="geometry" />
        </mxCell>
        <mxCell id="K5UuwSXsBrcgBbs2XnQ3-43" value="" style="endArrow=oval;startArrow=oval;html=1;rounded=0;sourcePerimeterSpacing=1;endFill=1;startFill=1;fillColor=#dae8fc;strokeColor=#6c8ebf;gradientColor=#7ea6e0;" edge="1" parent="1">
          <mxGeometry width="50" height="50" relative="1" as="geometry">
            <mxPoint x="720" y="115" as="sourcePoint" />
            <mxPoint x="720" y="75" as="targetPoint" />
          </mxGeometry>
        </mxCell>
        <mxCell id="K5UuwSXsBrcgBbs2XnQ3-44" value="" style="endArrow=oval;startArrow=oval;html=1;rounded=0;sourcePerimeterSpacing=1;endFill=1;startFill=1;fillColor=#dae8fc;strokeColor=#6c8ebf;gradientColor=#7ea6e0;" edge="1" parent="1">
          <mxGeometry width="50" height="50" relative="1" as="geometry">
            <mxPoint x="720" y="74" as="sourcePoint" />
            <mxPoint x="720" y="35" as="targetPoint" />
          </mxGeometry>
        </mxCell>
        <mxCell id="K5UuwSXsBrcgBbs2XnQ3-45" value="Merge into Hotfix &amp;amp; Production" style="text;html=1;strokeColor=none;fillColor=none;align=center;verticalAlign=middle;whiteSpace=wrap;rounded=0;" vertex="1" parent="1">
          <mxGeometry x="720" y="80" width="100" height="30" as="geometry" />
        </mxCell>
        <mxCell id="K5UuwSXsBrcgBbs2XnQ3-47" value="" style="endArrow=none;html=1;rounded=0;fillColor=#fa6800;strokeColor=#C73500;endFill=0;" edge="1" parent="1" source="K5UuwSXsBrcgBbs2XnQ3-38" target="K5UuwSXsBrcgBbs2XnQ3-46">
          <mxGeometry width="50" height="50" relative="1" as="geometry">
            <mxPoint x="540" y="155" as="sourcePoint" />
            <mxPoint x="1000" y="154.83" as="targetPoint" />
          </mxGeometry>
        </mxCell>
        <mxCell id="K5UuwSXsBrcgBbs2XnQ3-46" value="" style="ellipse;whiteSpace=wrap;html=1;aspect=fixed;fillColor=#6d8764;fontColor=#ffffff;strokeColor=#3A5431;" vertex="1" parent="1">
          <mxGeometry x="790" y="150" width="10" height="10" as="geometry" />
        </mxCell>
        <mxCell id="K5UuwSXsBrcgBbs2XnQ3-48" value="F1 Commit 2" style="text;html=1;strokeColor=none;fillColor=none;align=center;verticalAlign=middle;whiteSpace=wrap;rounded=0;" vertex="1" parent="1">
          <mxGeometry x="765" y="160" width="60" height="30" as="geometry" />
        </mxCell>
        <mxCell id="K5UuwSXsBrcgBbs2XnQ3-51" value="" style="endArrow=classic;startArrow=oval;html=1;rounded=0;sourcePerimeterSpacing=1;endFill=1;startFill=1;fillColor=#dae8fc;strokeColor=#6c8ebf;gradientColor=#7ea6e0;" edge="1" parent="1">
          <mxGeometry width="50" height="50" relative="1" as="geometry">
            <mxPoint x="920" y="155" as="sourcePoint" />
            <mxPoint x="920" y="115" as="targetPoint" />
          </mxGeometry>
        </mxCell>
        <mxCell id="K5UuwSXsBrcgBbs2XnQ3-52" value="Merge into Integration &amp;amp; Delete" style="text;html=1;strokeColor=none;fillColor=none;align=center;verticalAlign=middle;whiteSpace=wrap;rounded=0;" vertex="1" parent="1">
          <mxGeometry x="420" y="200" width="110" height="30" as="geometry" />
        </mxCell>
        <mxCell id="K5UuwSXsBrcgBbs2XnQ3-53" value="" style="endArrow=classic;startArrow=oval;html=1;rounded=0;sourcePerimeterSpacing=1;endFill=1;startFill=1;fillColor=#dae8fc;strokeColor=#6c8ebf;gradientColor=#7ea6e0;" edge="1" parent="1">
          <mxGeometry width="50" height="50" relative="1" as="geometry">
            <mxPoint x="970" y="115" as="sourcePoint" />
            <mxPoint x="970" y="77" as="targetPoint" />
          </mxGeometry>
        </mxCell>
        <mxCell id="K5UuwSXsBrcgBbs2XnQ3-55" value="Merge into Hotfix &amp;amp; Production" style="text;html=1;strokeColor=none;fillColor=none;align=center;verticalAlign=middle;whiteSpace=wrap;rounded=0;" vertex="1" parent="1">
          <mxGeometry x="980" y="80" width="100" height="30" as="geometry" />
        </mxCell>
        <mxCell id="K5UuwSXsBrcgBbs2XnQ3-57" value="" style="endArrow=none;html=1;rounded=0;fillColor=#fa6800;strokeColor=#C73500;endFill=0;" edge="1" parent="1" target="K5UuwSXsBrcgBbs2XnQ3-56">
          <mxGeometry width="50" height="50" relative="1" as="geometry">
            <mxPoint x="120" y="74.83" as="sourcePoint" />
            <mxPoint x="1160" y="75" as="targetPoint" />
          </mxGeometry>
        </mxCell>
        <mxCell id="K5UuwSXsBrcgBbs2XnQ3-54" value="" style="endArrow=classic;startArrow=oval;html=1;rounded=0;sourcePerimeterSpacing=1;endFill=1;startFill=1;fillColor=#dae8fc;strokeColor=#6c8ebf;gradientColor=#7ea6e0;" edge="1" parent="1">
          <mxGeometry width="50" height="50" relative="1" as="geometry">
            <mxPoint x="970" y="74" as="sourcePoint" />
            <mxPoint x="970" y="35" as="targetPoint" />
          </mxGeometry>
        </mxCell>
        <mxCell id="K5UuwSXsBrcgBbs2XnQ3-56" value="" style="ellipse;whiteSpace=wrap;html=1;aspect=fixed;fillColor=#6d8764;fontColor=#ffffff;strokeColor=#3A5431;" vertex="1" parent="1">
          <mxGeometry x="1170" y="70" width="10" height="10" as="geometry" />
        </mxCell>
        <mxCell id="K5UuwSXsBrcgBbs2XnQ3-58" value="" style="endArrow=classic;startArrow=oval;html=1;rounded=0;sourcePerimeterSpacing=1;endFill=1;startFill=1;fillColor=#dae8fc;strokeColor=#6c8ebf;gradientColor=#7ea6e0;" edge="1" parent="1">
          <mxGeometry width="50" height="50" relative="1" as="geometry">
            <mxPoint x="1300" y="75" as="sourcePoint" />
            <mxPoint x="1300" y="35" as="targetPoint" />
          </mxGeometry>
        </mxCell>
        <mxCell id="K5UuwSXsBrcgBbs2XnQ3-59" value="Bug Fix Commit 1" style="text;html=1;strokeColor=none;fillColor=none;align=center;verticalAlign=middle;whiteSpace=wrap;rounded=0;" vertex="1" parent="1">
          <mxGeometry x="1145" y="80" width="60" height="30" as="geometry" />
        </mxCell>
        <mxCell id="K5UuwSXsBrcgBbs2XnQ3-61" value="Merge into Production &amp;amp; Integration&amp;nbsp;" style="text;html=1;strokeColor=none;fillColor=none;align=center;verticalAlign=middle;whiteSpace=wrap;rounded=0;" vertex="1" parent="1">
          <mxGeometry x="1300" y="40" width="130" height="30" as="geometry" />
        </mxCell>
        <mxCell id="K5UuwSXsBrcgBbs2XnQ3-63" value="&lt;h1&gt;Git Workflow&lt;/h1&gt;&lt;p&gt;In this workflow, the &quot;master&quot; branch is renamed to Production. This will serve as the stable branch for deployment.&amp;nbsp;&lt;/p&gt;&lt;p&gt;From the Production branch we have the Hotfix and Integration Branch. The Hotfix branch serves as a quick fix branch for bug. When bugs have been resolved, the hot fix branch is merged back into Production and down into Integration. The Integration branch is the main staging branch where all development is prepared for production.&lt;/p&gt;&lt;p&gt;Branched from Integration are all feature branches. This can be n number of branches. In our model we have two. Features are developed then merged/rebased into the Integration branch for staging prep.&amp;nbsp;&lt;/p&gt;&lt;p&gt;Each branch is affixed with an initial README file that describes the branch&#39;s purpose, goals, and documentation regarding the particular code it contains.&lt;/p&gt;&lt;p&gt;Pros of this model:&lt;/p&gt;&lt;p&gt;&lt;/p&gt;&lt;ul&gt;&lt;li&gt;The Production/master branch is always releasable.&lt;/li&gt;&lt;li&gt;This model offers strict controls merging/rebasing into Integration and Production.&amp;nbsp;&lt;/li&gt;&lt;/ul&gt;&lt;div&gt;Cons of this model:&lt;/div&gt;&lt;div&gt;&lt;ul&gt;&lt;li&gt;The Production branch is not always up to date (lags behind integration).&lt;/li&gt;&lt;li&gt;Merges into production are often large which can make troubleshooting bugs more difficult.&lt;/li&gt;&lt;li&gt;Branch enforcement becomes more complex and requires more robust guidelines.&lt;/li&gt;&lt;/ul&gt;&lt;/div&gt;&lt;p&gt;&lt;/p&gt;" style="text;html=1;strokeColor=none;fillColor=none;spacing=5;spacingTop=-20;whiteSpace=wrap;overflow=hidden;rounded=0;" vertex="1" parent="1">
          <mxGeometry y="290" width="670" height="590" as="geometry" />
        </mxCell>
        <mxCell id="K5UuwSXsBrcgBbs2XnQ3-67" value="" style="endArrow=oval;startArrow=classic;html=1;rounded=0;sourcePerimeterSpacing=1;endFill=1;startFill=1;fillColor=#dae8fc;strokeColor=#6c8ebf;gradientColor=#7ea6e0;" edge="1" parent="1">
          <mxGeometry width="50" height="50" relative="1" as="geometry">
            <mxPoint x="1300" y="115" as="sourcePoint" />
            <mxPoint x="1300" y="75" as="targetPoint" />
          </mxGeometry>
        </mxCell>
      </root>
    </mxGraphModel>
  </diagram>
</mxfile>
